<?xml version="1.0" encoding="UTF-8" standalone="no"?>
<!-- Created with Inkscape (http://www.inkscape.org/) -->

<svg
   xmlns:dc="http://purl.org/dc/elements/1.1/"
   xmlns:cc="http://creativecommons.org/ns#"
   xmlns:rdf="http://www.w3.org/1999/02/22-rdf-syntax-ns#"
   xmlns:svg="http://www.w3.org/2000/svg"
   xmlns="http://www.w3.org/2000/svg"
   xmlns:sodipodi="http://sodipodi.sourceforge.net/DTD/sodipodi-0.dtd"
   xmlns:inkscape="http://www.inkscape.org/namespaces/inkscape"
   width="210mm"
   height="297mm"
   viewBox="0 0 210 297"
   version="1.1"
   id="svg8"
   inkscape:version="0.92.4 (5da689c313, 2019-01-14)"
   sodipodi:docname="Logo.svg">
  <defs
     id="defs2" />
  <sodipodi:namedview
     id="base"
     pagecolor="#ffffff"
     bordercolor="#666666"
     borderopacity="1.0"
     inkscape:pageopacity="0.0"
     inkscape:pageshadow="2"
     inkscape:zoom="0.35"
     inkscape:cx="400"
     inkscape:cy="560"
     inkscape:document-units="mm"
     inkscape:current-layer="layer1"
     showgrid="false"
     inkscape:window-width="1920"
     inkscape:window-height="1001"
     inkscape:window-x="1699"
     inkscape:window-y="-9"
     inkscape:window-maximized="1" />
  <metadata
     id="metadata5">
    <rdf:RDF>
      <cc:Work
         rdf:about="">
        <dc:format>image/svg+xml</dc:format>
        <dc:type
           rdf:resource="http://purl.org/dc/dcmitype/StillImage" />
        <dc:title></dc:title>
      </cc:Work>
    </rdf:RDF>
  </metadata>
  <g
     inkscape:label="Capa 1"
     inkscape:groupmode="layer"
     id="layer1">
    <text
       xml:space="preserve"
       style="font-style:normal;font-weight:normal;font-size:29.74379539px;line-height:1.25;font-family:sans-serif;letter-spacing:0px;word-spacing:0px;fill:#000000;fill-opacity:1;stroke:none;stroke-width:0.74359477"
       x="43.44136"
       y="192.20526"
       id="text3715"
       transform="scale(1.0641946,0.93967776)"><tspan
         sodipodi:role="line"
         id="tspan3713"
         x="43.44136"
         y="192.20526"
         style="font-style:normal;font-variant:normal;font-weight:normal;font-stretch:normal;font-size:76.6013031px;line-height:5.25;font-family:'Beyond The Mountains';-inkscape-font-specification:'Beyond The Mountains';fill:#ff6600;stroke-width:0.74359477">SS</tspan></text>
    <text
       xml:space="preserve"
       style="font-style:normal;font-weight:normal;font-size:10.58333302px;line-height:1.25;font-family:sans-serif;letter-spacing:0px;word-spacing:0px;fill:#000000;fill-opacity:1;stroke:none;stroke-width:0.26458332"
       x="154.21428"
       y="237.27977"
       id="text3719"><tspan
         sodipodi:role="line"
         id="tspan3717"
         x="154.21428"
         y="246.93527"
         style="stroke-width:0.26458332" /></text>
    <path
       style="opacity:0.01000001;fill:#ff6600;stroke-width:0.26458332"
       id="path3721"
       d="m 107.3177,71.386998 c -4.76885,0.630849 -14.804345,6.953602 0.62988,-1.761654 -4.63923,3.396361 -8.90135,7.280778 -13.033372,11.269699 -5.040453,5.035005 -9.78708,10.352228 -14.377987,15.796914 -3.822502,4.649903 -7.84733,9.125713 -11.823568,13.643003 -3.173219,3.60635 -6.859291,6.70414 -10.688791,9.58429 -5.38812,3.36391 -10.616297,7.37276 -16.697412,9.34222 -1.517412,0.49144 -2.655543,0.6691 -4.214386,0.97756 -4.262348,0.43989 -8.657852,0.99278 -12.942204,0.46149 -1.012121,-0.12551 -2.005382,-0.37284 -3.008074,-0.55926 -5.339472,-1.36582 -9.996302,-2.7771 -14.5772726,-5.89753 -2.6144768,-1.63604 -4.4663304,-3.96795 -5.62505664,-6.79304 -0.64041445,-1.75636 -0.69936717,-3.61409 -0.71876406,-5.45983 -0.1745741,-2.52188 0.28558037,-4.06467 1.5922466,-6.22283 2.2341804,-3.52046 5.6726953,-5.856814 9.0669237,-8.1374 5.648508,-3.792159 11.642843,-7.037488 17.637346,-10.242937 1.273178,-0.680809 2.615391,-1.22461 3.938884,-1.801545 2.503636,-1.091382 6.79265,-2.801437 9.282393,-3.806468 10.01051,-3.947641 20.614846,-5.676061 31.27262,-6.634501 8.076689,-0.795612 15.960804,0.610855 23.580449,3.197381 4.086305,1.430457 7.893515,3.48733 11.723605,5.473518 3.46524,1.755251 5.00371,0.329168 8.23103,-1.399942 0.92388,-0.512099 3.7049,-2.031122 2.77165,-1.536295 -1.97579,1.047604 -3.74811,2.584349 -5.89953,3.194761 -1.48738,0.422005 2.57236,-1.716632 3.83493,-2.608985 4.05013,-2.862516 7.80467,-5.951923 11.49642,-9.256188 3.81815,-3.643188 7.31249,-7.685961 9.44897,-12.563501 1.06531,-2.432087 1.22807,-3.472913 1.87676,-5.997681 0.78561,-3.648165 0.91614,-7.378851 1.01878,-11.093955 0,0 9.80487,-4.961131 9.80487,-4.961131 v 0 c -0.10865,3.792231 -0.24483,7.600259 -0.9734,11.335478 -0.61796,2.556499 -0.80877,3.761194 -1.82944,6.234263 -2.08045,5.040886 -5.56254,9.243991 -9.44772,13.004609 -1.18718,1.083837 -2.34328,2.202733 -3.56155,3.25151 -8.23331,7.087843 -17.57571,12.740354 -27.11984,17.869952 -3.53842,1.713947 -5.42083,2.682785 -8.986959,0.632053 -3.694072,-2.040401 -7.414386,-4.05697 -11.40905,-5.462378 C 79.958109,81.907194 72.53302,80.705906 64.452036,81.500455 53.851127,82.51654 43.315733,84.29309 33.401775,88.358982 c -3.031339,1.24256 -6.345264,2.568487 -9.338523,3.918831 -1.341677,0.605268 -5.102578,2.856198 -3.988939,1.893776 1.791437,-1.548186 4.048951,-2.45573 6.068783,-3.691207 1.675293,-1.024732 -6.376752,3.815236 -4.986969,3.136921 -3.31932,2.198266 -6.796603,4.316034 -9.10818,7.655707 -1.414531,2.10986 -1.991536,3.00954 -1.815263,5.61886 0.0031,1.71412 -0.0089,3.45241 0.502937,5.10766 0.994118,2.66227 2.756732,4.74875 5.162309,6.28673 4.30428,2.86064 9.18995,4.45267 14.214362,5.57772 0.981475,0.14802 1.956136,0.35192 2.944424,0.44405 4.272896,0.39835 8.634828,-0.14011 12.855882,-0.75291 1.737026,-0.40583 2.425811,-0.50631 4.102978,-1.14182 0.634066,-0.24026 2.43445,-1.18231 1.862209,-0.81857 -14.616499,9.29082 -7.49236,4.22078 -4.125542,2.39887 3.882646,-2.79836 7.605149,-5.85553 10.842249,-9.39334 4.004998,-4.52849 8.082079,-8.99481 11.930679,-13.65903 4.571666,-5.471709 9.339365,-10.777327 14.312172,-15.888479 4.088154,-4.007572 8.3282,-7.84764 12.800131,-11.426312 5.993636,-3.501908 11.674296,-7.944765 18.690986,-8.939731 0,0 -9.01076,6.70029 -9.01076,6.70029 z"
       inkscape:connector-curvature="0" />
    <path
       style="opacity:0.01000001;fill:#ff6600;stroke-width:0.26458332"
       id="path3723"
       d="m 181.38114,228.94613 c -2.74259,2.26554 -5.27151,4.73937 -8.19,6.78682 -10.9949,6.81539 -12.4071,8.10295 -23.84196,8.24507 -1.46744,-0.11761 -2.94323,-0.15718 -4.40231,-0.35282 -4.2707,-0.57261 -8.09172,-1.53342 -12.26704,-2.68555 -8.8194,-2.43361 -17.37946,-5.53945 -25.96237,-8.68574 C 92.363366,226.75111 78.22857,220.66702 64.363983,214.02578 56.468695,210.24387 51.580062,207.6799 43.83556,203.71669 30.579118,196.43044 16.986483,189.26492 5.404872,179.39433 3.5797201,177.83882 1.9043505,176.11569 0.1540897,174.47636 -5.4532889,168.5943 -10.294822,162.03749 -13.610848,154.5941 c -2.045124,-4.59063 -2.222559,-5.66734 -3.697757,-10.44209 -1.964435,-7.32802 -2.777323,-14.92188 -2.661665,-22.50248 0.08208,-5.3802 0.494105,-8.39127 1.023535,-13.78381 1.725793,-12.816611 5.074389,-25.446063 10.15167,-37.352606 1.0179343,-2.387121 2.1807847,-4.709811 3.2711773,-7.064716 5.05015948,-9.809629 10.5292611,-20.052165 19.2143937,-27.192589 1.474356,-1.212133 3.123496,-2.194478 4.685244,-3.291719 4.715616,-2.555785 9.29959,-5.371012 14.146846,-7.667352 1.76403,-0.83569 3.710808,-1.225492 5.60655,-1.690619 6.015567,-1.475939 12.33597,-2.133339 18.524818,-1.843951 2.234051,0.104463 4.452064,0.432113 6.678094,0.64817 13.633603,2.347151 26.669428,7.353993 39.122362,13.276746 2.94506,1.400704 5.83556,2.913354 8.75334,4.37003 15.72842,8.145217 30.34147,18.337578 43.67141,29.988584 2.61825,2.288479 5.12125,4.705564 7.68188,7.058348 8.09759,7.865663 15.74258,16.428156 21.27268,26.340464 2.77618,4.97613 3.122,6.47755 5.06178,11.67684 2.7907,9.60779 3.6055,19.67171 2.83242,29.63172 -0.17001,2.19033 -0.47959,4.36758 -0.71938,6.55138 -1.55438,12.40459 -4.7705,24.46804 -8.26383,36.43855 -3.06134,10.52074 -6.47376,20.94697 -10.36392,31.19093 -2.80707,6.62027 -5.45923,13.30389 -7.63232,20.16093 -1.15297,3.93516 -1.7326,8.01466 -1.71397,12.11159 0.0882,2.57759 1.20999,4.64653 3.16605,6.26989 1.86662,1.30294 3.97153,2.12762 6.17915,2.62665 1.69031,0.33171 3.41581,0.35264 5.13159,0.36072 1.03464,0.0469 2.00689,0.0251 2.95203,-0.444 0.18644,-0.0925 0.71511,-0.42625 0.5343,-0.32314 -3.11239,1.77482 -6.21949,3.55892 -9.32923,5.3384 0.81724,0.45186 0.16192,0.51152 -0.14362,0.73536 -0.6959,0.50985 0.0405,0.11467 -0.85576,0.52938 -1.37311,0.62211 -2.74365,1.08921 -4.24597,1.28458 -4.01216,0.62322 -7.52829,-1.16152 -11.038,-2.87436 -1.24984,-0.72341 -2.52049,-1.41198 -3.7495,-2.17022 -2.77261,-1.71054 -6.86117,-4.51768 -9.48695,-6.29807 -5.88009,-3.98697 -11.69842,-8.05727 -17.51895,-12.13055 -12.89891,-8.89168 -25.345814,-18.38089 -37.217808,-28.59946 -9.222404,-8.2066 -18.071827,-16.81938 -26.371751,-25.95735 -4.330062,-4.83197 -8.212717,-10.03414 -12.01983,-15.27991 -0.812657,-0.90199 -1.623695,-2.51879 -2.993342,-2.76088 -0.299797,-0.053 -0.625851,-0.012 -0.907415,0.10381 -0.331309,0.13626 -1.187844,0.79726 -0.872096,0.62804 2.852438,-1.52871 5.659673,-3.1403 8.489511,-4.71045 -2.421827,1.97027 -4.760952,4.03571 -7.245737,5.92824 -3.975316,3.16981 -8.228165,5.30216 -12.895286,7.75543 -0.267017,0.14036 -0.610904,0.11672 -0.903869,0.0448 -0.420844,-0.10329 -0.78367,-0.3701 -1.175507,-0.55515 -3.296253,-2.37828 -5.4421,-5.98223 -7.456135,-9.43244 -2.64228,-4.52644 -2.782933,-5.07816 -5.132106,-9.95388 -3.837569,-8.30893 -6.482489,-17.10706 -8.2310065,-26.07979 -0.4295717,-2.2044 -0.8628859,-4.41276 -1.1198347,-6.64387 -0.2598042,-2.25591 -0.2855505,-4.53266 -0.4283257,-6.79899 0.1053412,-9.35536 1.8528989,-18.65645 4.9181659,-27.491892 1.847658,-5.325753 2.983187,-7.389654 5.37615,-12.473649 3.801808,-7.386696 8.34687,-14.46027 13.957523,-20.616931 3.225959,-3.5399 4.194662,-4.164936 7.764698,-7.174873 7.990493,-5.718535 16.649128,-11.085655 26.583476,-12.135252 4.040396,-0.426884 6.031727,-0.120237 10.080193,0.144907 8.028647,1.128641 15.803182,3.809209 23.088955,7.336184 4.415527,2.137513 7.606337,4.172 11.804687,6.68429 9.70304,6.022592 18.56175,13.267209 26.52763,21.430525 4.26466,4.286314 7.88119,9.093539 10.83688,14.354874 0.70961,1.411517 1.40285,2.829745 2.13518,4.229584 0,0 -9.688,5.528533 -9.688,5.528533 v 0 c -0.70402,-1.40429 -1.36783,-2.826214 -2.03393,-4.248932 -2.81745,-5.220533 -6.26601,-10.007144 -10.41045,-14.273656 -7.78701,-8.177858 -16.49928,-15.413154 -26.12559,-21.35132 -4.349962,-2.589929 -7.143739,-4.394083 -11.736245,-6.561407 -7.277803,-3.434588 -15.047004,-5.971706 -23.053026,-6.914536 -5.437005,-0.249203 -9.329465,-0.38572 -14.676305,1.036754 -1.520225,0.404442 -4.87875,3.014337 -4.476771,1.493459 0.507296,-1.919348 3.343087,-2.145519 4.955302,-3.303974 1.270407,-0.912852 -2.619394,1.711058 -3.929089,2.566588 -3.607594,2.912483 -4.677998,3.581011 -7.929507,7.039235 -5.697408,6.059614 -10.322568,13.078496 -14.182976,20.418628 -2.341127,4.871495 -3.637315,7.245392 -5.466101,12.34917 -3.118419,8.702887 -4.886822,17.900821 -5.058435,27.143951 0.127879,2.23353 0.141249,4.47657 0.383638,6.70058 0.241848,2.21904 0.651888,4.41775 1.067153,6.61095 1.684937,8.89894 4.317906,17.60868 8.235621,25.78956 2.367259,4.75053 2.534383,5.37352 5.243484,9.74907 1.96147,3.16803 4.103293,6.65096 7.426319,8.54589 0.29322,0.0289 0.586928,0.1201 0.879658,0.0866 0.257871,-0.0295 0.952505,-0.40449 0.73007,-0.27074 -16.421282,9.8742 -9.54028,5.9264 -6.252146,3.35051 2.551855,-1.79743 4.913889,-3.84678 7.241812,-5.92244 3.55791,-2.10746 7.050156,-4.32994 10.673728,-6.32238 0.686522,-0.37749 1.708682,-0.20581 2.368928,0.0935 1.403578,0.63625 2.226395,2.08845 3.119562,3.24537 3.655928,5.28722 7.434816,10.49714 11.655745,15.35387 8.112771,9.20799 16.831815,17.85672 25.981797,26.03584 5.023154,4.31709 6.438674,5.61392 11.620824,9.74609 8.26391,6.58949 16.89112,12.70096 25.54739,18.75909 5.86092,4.04631 11.71602,8.09588 17.66733,12.00887 2.87513,1.8904 6.61899,4.35286 9.64502,6.09753 1.24612,0.71846 2.53665,1.35699 3.80497,2.03548 3.5254,1.53135 7.03261,3.01113 10.92988,2.11889 1.43523,-0.3482 2.77361,-0.93016 4.13956,-1.48337 1.23972,-0.42481 2.55237,0.0202 2.63163,1.52441 -5.9844,3.49459 -8.0249,6.4218 -13.74028,6.18955 -1.76483,-0.0464 -3.53599,-0.14986 -5.25286,-0.59627 -2.31321,-0.65378 -4.53332,-1.60538 -6.45502,-3.07596 -2.08311,-1.91918 -3.43386,-4.22392 -3.56815,-7.11655 -0.0746,-4.21804 0.54829,-8.42916 1.6859,-12.4898 2.20459,-6.93518 4.97396,-13.67024 7.86691,-20.34336 4.00256,-10.21572 7.45578,-20.64938 10.54324,-31.17641 3.4842,-11.93705 6.82577,-23.93515 8.40743,-36.30531 0.23958,-2.15788 0.55023,-4.30904 0.71874,-6.47363 0.76477,-9.82366 -0.0217,-19.7482 -2.67008,-29.25025 -1.83143,-5.1546 -2.14458,-6.63351 -4.81229,-11.57768 -5.33771,-9.892575 -12.80935,-18.465689 -20.76755,-26.316747 -2.53654,-2.348119 -5.0115,-4.764572 -7.60964,-7.044356 C 133.22758,63.639906 118.5605,53.610335 102.83942,45.568581 99.91079,44.134846 97.009084,42.644755 94.053532,41.267374 81.566582,35.448049 68.5001,30.573697 54.834461,28.470116 c -2.218049,-0.177988 -4.43003,-0.46523 -6.654149,-0.533961 -6.155772,-0.190227 -12.444674,0.5305 -18.394172,2.130015 -1.875999,0.504359 -3.878274,2.838598 -5.534989,1.82418 -1.37713,-0.843224 2.641474,-1.858134 3.962213,-2.787202 -1.588687,1.050544 -3.26437,1.980096 -4.766062,3.151629 -8.800642,6.865752 -14.5429109,17.223105 -19.6056581,26.92636 -1.101847,2.337075 -2.2764033,4.641236 -3.3055409,7.011228 -5.1180216,11.786253 -8.4885352,24.322378 -10.1842871,37.047995 -0.5191899,5.44096 -0.9011449,8.19564 -0.9632529,13.61333 -0.08573,7.47813 0.7354001,14.96194 2.6022612,22.20647 0.5251855,1.73055 0.9787408,3.48447 1.5755562,5.19163 3.2853156,9.3975 8.5810323,17.56643 15.4194087,24.77703 1.7120449,1.62681 3.3510149,3.33416 5.1361359,4.88043 11.406218,9.88007 24.835354,17.10157 37.934377,24.41265 8.112754,4.207 12.099155,6.35402 20.416186,10.33498 13.885913,6.64651 28.088202,12.63886 42.511642,18.01651 8.67018,3.05908 17.3152,6.11136 26.24197,8.35645 4.1941,1.05481 8.16159,1.9064 12.45051,2.33609 1.475,0.14777 2.9617,0.135 4.44255,0.2025 2.97494,-0.13039 5.91635,-0.23977 8.82132,-0.9639 3.86642,-0.96379 11.15814,-5.53231 -4.07698,3.17375 2.97014,-1.91071 5.54825,-4.24798 8.09427,-6.68693 0,0 10.42337,-4.14522 10.42337,-4.14522 z"
       inkscape:connector-curvature="0" />
    <path
       style="opacity:0.01000001;fill:#24221c;stroke-width:0.26458332"
       id="path3725"
       d="m 192.97226,226.35993 c -12.4173,9.08194 -26.42836,15.90819 -40.96415,20.86642 -3.99813,1.36378 -8.06457,2.51844 -12.09685,3.77766 -22.48545,6.0925 -45.673023,9.38501 -68.886598,11.06586 -3.769244,0.27293 -7.5477,0.39873 -11.321547,0.59809 -10.741041,-0.0489 -22.570723,0.43638 -31.503591,-6.65266 -5.775023,-4.58301 -6.903939,-7.70127 -10.882701,-14.03524 -1.614602,-3.62355 -3.442965,-7.15922 -4.843804,-10.87065 C 8.7295277,221.19129 6.4023488,211.64041 4.37164,201.2075 1.9677984,188.85759 0.18992682,175.83313 -0.61521995,163.28207 -1.0410489,156.64402 -0.99673443,149.98415 -1.1874917,143.3352 -0.4455265,128.56689 -0.59952019,119.86138 2.4139495,105.403 4.8053701,93.929154 8.7786463,82.430714 14.016533,71.939763 20.356126,59.242208 23.144705,56.743128 31.650212,45.834617 c 3.362783,-3.247419 6.515497,-6.727494 10.088345,-9.742257 3.313758,-2.796143 6.832764,-5.36929 10.521395,-7.648199 10.930964,-6.753367 17.73637,-10.80214 29.135183,-14.26761 7.670467,-2.331977 10.408042,-2.357699 18.073584,-3.29985 2.449231,0.05735 4.912451,-0.0956 7.347691,0.172051 5.9176,0.650379 11.53834,2.881802 15.75185,7.182174 3.62653,3.701294 4.02415,5.590518 6.26987,10.290789 4.84232,14.105107 4.97406,29.178824 3.2044,43.856449 -0.44485,3.689647 -1.13433,7.345667 -1.7015,11.018499 -3.67728,18.660337 -9.90541,36.666837 -15.35722,54.848607 -3.95363,13.18535 -5.16511,17.68088 -8.91247,30.95166 -5.52457,20.3335 -10.468482,41.05188 -11.64006,62.17198 -0.743111,13.39608 -0.09232,15.24577 1.136737,28.31411 2.428076,14.79959 6.927273,29.40025 16.024743,41.5432 4.60683,6.14899 6.25651,7.03114 11.92235,11.84439 8.9558,6.0892 18.57327,9.44091 29.40369,10.08163 8.726,0.51623 11.28995,-0.17833 20.21902,-1.1683 4.2393,-0.96702 8.53211,-1.72376 12.7179,-2.90102 11.9216,-3.35299 23.12858,-7.73277 34.48661,-12.70188 14.5671,-6.37307 32.0577,-15.05826 45.91798,-22.53842 8.5807,-4.63085 16.9821,-9.58652 25.47313,-14.37979 34.64796,-21.64704 69.27514,-44.94633 95.76062,-76.53509 3.60117,-4.29506 6.70632,-8.98271 10.05949,-13.47406 4.84126,-8.92918 8.26812,-13.09186 9.61596,-23.11225 0.96988,-7.21039 -0.40397,-13.99521 -3.46054,-20.53928 -4.47074,-9.57185 -8.92723,-13.23391 -16.06486,-21.20454 -4.51284,-3.77398 -8.81193,-7.81938 -13.53852,-11.32194 C 347.17114,83.316338 315.61211,69.906588 283.7403,60.097407 274.53397,57.263971 265.14049,55.078727 255.84057,52.569387 220.80144,44.787026 184.73161,40.390373 148.87353,44.425639 127.49571,46.831382 122.59143,49.040885 102.11089,54.700743 80.828538,61.546059 60.603251,71.111588 41.225157,82.190309 37.597855,84.264086 34.120275,86.591364 30.629354,88.887307 14.24238,99.664847 15.497363,99.030291 0.28427476,110.1882 -9.6278887,117.66046 -19.062932,125.72766 -28.22807,134.08995 c -0.489445,0.44657 -6.977573,6.1595 -8.088109,7.71273 -2.558558,0.59283 -6.969077,4.308 -7.675676,1.77849 -0.777325,-2.7827 4.379336,-3.77041 6.604426,-5.61339 3.485896,-2.88728 6.931401,-5.82806 10.527649,-8.57667 11.215351,-8.57188 22.378733,-16.31894 34.6079295,-23.47003 C 17.660257,100.12492 27.868012,94.849843 37.927944,89.314228 46.82482,85.306605 55.560264,80.919375 64.618573,77.29136 106.24016,60.621174 150.44054,50.841174 195.12005,47.479542 c 10.79182,-0.811961 21.63038,-0.785487 32.44558,-1.178229 26.66531,0.241091 53.57993,2.18636 79.23448,10.019429 11.35883,3.468172 23.57554,8.541959 32.90912,16.209388 4.04653,3.324188 7.10676,7.693695 10.66011,11.540543 2.33074,4.898747 5.47286,9.488398 6.99217,14.696244 3.99611,13.697613 3.06703,27.356603 -0.10035,41.145203 -4.27776,18.62237 -13.02491,38.26809 -22.46736,54.67072 -5.75305,9.99367 -12.67638,19.26636 -19.01455,28.89954 -21.7066,25.55754 -26.7336,33.99486 -53.76934,55.19086 -26.10075,20.46298 -52.57959,35.29481 -83.53115,47.78764 -41.43108,16.72264 -66.29709,19.82488 -110.464234,29.17139 -21.53603,2.68844 -42.991565,6.12781 -64.608095,8.06532 -43.900918,3.93489 -90.024862,4.79494 -134.069481,3.7605 -42.64269,-1.0015 -81.2063,-3.73443 -123.42137,-9.23046 -17.74794,-2.31061 -35.34387,-5.66791 -53.01581,-8.50186 -32.19133,-7.55748 -52.23999,-10.75772 -82.30701,-23.12032 -16.64134,-6.84242 -37.60369,-17.74548 -49.83771,-31.90947 -15.3281,-17.74618 -13.63577,-26.08461 -17.52526,-48.2637 1.06426,-9.64171 0.86284,-19.50884 3.19278,-28.92513 12.03257,-48.62853 51.46734,-87.94017 92.54715,-113.84525 14.80111,-9.333635 30.71291,-16.777227 46.06938,-25.165839 15.84471,-6.290617 31.40284,-13.357508 47.53415,-18.871845 35.02901,-11.974348 70.32276,-20.323466 106.8878,-26.038037 35.34946,-5.524593 73.91419,-8.537484 109.726269,-8.3317 17.089948,0.0982 34.137914,1.70489 51.20687106,2.557335 C 15.79788,29.898747 31.29997,31.356538 46.605261,34.07261 c 24.114103,4.279281 49.425362,10.538275 71.964949,20.551042 16.68532,7.412125 32.63017,17.301085 44.81431,31.152089 5.34186,6.072645 8.96977,13.460793 13.45466,20.191189 2.5522,8.38699 6.05455,16.54187 7.65661,25.16096 3.70432,19.92917 2.84799,43.33816 0.81435,63.23117 -2.5248,24.69755 -7.69792,49.05711 -13.32172,73.1907 -2.78826,11.96541 -6.00711,23.82639 -9.01066,35.7396 -7.87768,30.29172 -17.60111,60.08277 -24.12231,90.72403 -2.80957,13.20136 -5.69247,29.85067 -6.4734,43.56505 -0.30299,5.32106 0.0693,10.65914 0.10391,15.98869 1.54662,9.27103 1.3513,14.32169 6.28343,22.29919 3.42327,5.53699 8.5717,9.65036 14.54478,12.14078 9.56258,3.987 15.01417,3.26906 25.55154,3.87022 6.1318,-0.60071 12.35814,-0.57285 18.39542,-1.80213 19.12146,-3.89348 41.0565,-12.15393 58.71449,-19.57459 23.17501,-9.73913 48.62946,-22.32274 70.52169,-34.54593 10.16627,-5.67619 19.95826,-11.99814 29.93739,-17.9972 10.82972,-7.34174 21.92899,-14.30078 32.48914,-22.02524 19.71085,-14.41791 36.41842,-28.53409 53.39742,-45.99225 12.16022,-12.50339 24.58119,-27.47079 33.98604,-42.31164 3.70607,-5.84814 6.58789,-12.17959 9.88182,-18.26937 4.50432,-13.51616 7.7035,-18.65742 6.90644,-33.01393 -0.65817,-11.85502 -4.77713,-22.782 -10.82767,-32.89294 -9.52751,-15.92126 -16.23687,-20.8186 -29.58042,-34.10357 -7.26863,-5.50767 -14.22342,-11.45607 -21.80584,-16.523 -38.49963,-25.72722 -83.941,-41.51696 -129.41052,-49.2039 -13.40098,-2.26552 -26.99205,-3.21021 -40.48806,-4.81531 -14.24456,-0.30124 -28.49212,-1.32349 -42.73367,-0.9037 -48.27273,1.42288 -94.50508,10.3638 -140.423376,25.13978 -42.461759,13.66371 -57.175049,21.63623 -97.964618,39.94082 -54.592524,26.60828 -106.936026,57.62488 -157.258816,91.57839 -20.2386,13.65526 -28.14844,19.73477 -46.95255,33.57166 -14.7852,11.39965 -13.48715,10.26229 -26.43962,20.68298 -2.52259,2.02949 -4.9729,4.14944 -7.53225,6.13238 -4.59383,3.55926 -12.15952,8.45831 -17.20393,9.31685 -1.26381,0.21508 -1.09363,-2.31902 -1.64045,-3.47853 0.41469,-2.51841 0.50327,-5.11273 1.244,-7.55517 2.94431,-9.70825 8.12421,-19.19724 13.62171,-27.57689 9.08768,-13.85207 19.89301,-26.95562 31.62305,-38.62697 7.07761,-7.0422 14.83079,-13.37118 22.24618,-20.05676 8.67063,-6.27768 17.05131,-12.97664 26.01187,-18.83303 9.3128,-6.0866 18.95213,-11.68256 28.748,-16.95662 25.79621,-13.88858 41.35596,-21.17138 68.506563,-30.35321 28.816601,-9.74525 36.321015,-10.48201 65.853042,-16.82714 10.6690063,-1.39433 21.2813165,-3.32792 32.00702,-4.18299 30.140947,-2.40288 61.035933,-0.51021 89.999065,8.73776 24.76075,7.90615 31.00644,13.27244 53.21466,26.37738 21.54919,17.0313 26.46711,19.29998 44.6414,40.17852 6.71005,7.70848 12.86689,15.89986 18.77006,24.2424 17.80594,25.16395 31.91102,52.73998 46.58509,79.76442 11.7185,21.47784 23.37337,43.01638 36.2137,63.85465 4.50012,7.30313 11.52584,18.33554 17.14035,25.27395 2.22096,2.74471 4.7998,5.17943 7.19973,7.76912 2.30635,1.58594 4.3837,3.57182 6.91902,4.75779 7.44034,3.48043 15.93519,1.20729 22.29236,-3.45972 0.77303,-0.5675 0.50178,-1.92797 1.14488,-2.6394 3.79965,-4.20325 8.04346,-7.98261 12.06521,-11.97391 4.62944,-5.35749 9.43544,-10.56735 13.88832,-16.07246 22.78719,-28.17174 42.23425,-59.02496 58.74795,-91.24862 3.93713,-7.68263 7.47165,-15.56502 11.20746,-23.34752 7.86075,-18.79542 16.16062,-38.04502 18.29583,-58.55902 0.55383,-5.321 0.75004,-10.72971 0.1736,-16.0483 -1.65,-15.22343 -4.67575,-17.57389 -11.95189,-31.07616 -4.81108,-5.24632 -9.10302,-11.02099 -14.43321,-15.73898 -14.26871,-12.62987 -31.27616,-22.56275 -48.43063,-30.59639 -21.15762,-9.90837 -44.59473,-17.81219 -67.24293,-23.34654 -12.41356,-3.0334 -25.07781,-4.92909 -37.61671,-7.39364 -13.04345,-1.24123 -26.03976,-3.16804 -39.13034,-3.7237 -41.90784,-1.77887 -83.60901,3.35387 -124.50968,12.16899 -33.00149,7.11265 -44.013503,11.27305 -75.69651,21.11104 -39.696339,13.37946 -78.137031,30.24895 -114.954306,50.20654 -3.657729,1.98275 -7.256698,4.07205 -10.885045,6.10807 5.275746,-2.62242 8.640119,-4.31462 -13.493049,7.87475 -0.784659,0.43213 -4.604186,2.81855 -6.175375,1.30496 -2.057831,-1.9824 -0.548793,-5.84882 -0.207317,-7.78512 0.943499,-2.29085 1.692961,-4.67161 2.830497,-6.87258 3.993086,-7.72603 8.35587,-13.62344 14.175136,-20.241 8.267253,-9.40135 16.043241,-16.62215 26.145985,-24.16655 5.471226,-4.08573 11.330993,-7.62356 16.996492,-11.43534 8.684925,-4.74857 17.165452,-9.89178 26.054778,-14.24572 18.247308,-8.93743 39.286115,-15.14736 59.43766,-17.72193 17.139832,-2.189804 19.755088,-1.25437 36.565617,-0.2053 13.328827,3.10809 18.577907,3.17627 30.372257,10.43833 10.19214,6.27555 17.28915,13.84835 23.64665,24.00821 9.11858,14.57232 11.06644,23.62652 16.65579,40.03644 1.76353,8.27182 3.99504,16.45755 5.29059,24.81546 4.51553,29.13072 4.28227,59.19324 -0.94832,88.22254 -5.07546,28.16828 -8.85286,34.61848 -18.83159,61.34293 -4.76951,9.38551 -8.89018,19.13003 -14.30852,28.15653 -5.49345,9.15162 -11.81831,17.7999 -18.34677,26.24439 -11.20492,14.49348 -24.37868,28.38657 -37.935305,40.73057 -12.725823,11.58748 -17.772623,14.69917 -31.080308,24.26634 -10.706568,6.64109 -17.243439,11.0299 -29.260356,16.67904 -2.358923,1.10895 -4.8895666,1.9267 -7.46497,2.3286 -2.8939222,0.45162 -8.3509181,0.0871 -10.2323758,-3.03255 -1.6142753,-2.67655 -1.7935556,-5.98855 -2.6903336,-8.98281 0.073646,-5.44928 -0.3147354,-10.92444 0.2209393,-16.34779 1.6754877,-16.96326 5.85550436,-34.45814 11.6179492,-50.42572 8.1029129,-22.45296 17.9128059,-42.20144 32.0582569,-61.60153 7.847425,-10.76254 17.249306,-20.30071 25.873961,-30.45106 10.870271,-9.41427 21.000077,-19.75858 32.610808,-28.24281 12.869594,-9.40411 26.524424,-17.78447 40.603784,-25.25678 16.79486,-8.9135 34.13857,-16.85431 51.83663,-23.8039 34.1322,-13.40287 74.51203,-23.79609 110.30645,-31.05797 19.34271,-3.92421 38.92325,-6.56812 58.38489,-9.85219 19.26624,-2.13816 38.48618,-4.7457 57.79875,-6.41448 18.32774,-1.58369 36.70697,-2.57248 55.08699,-3.33989 41.78525,-1.74463 83.72142,-1.36308 125.47555,0.97546 8.60534,0.48195 17.19157,1.25988 25.78735,1.88982 10.4349,1.14723 21.48181,2.09341 31.87348,4.06686 2.88878,0.5486 5.78004,1.16683 8.56539,2.10913 1.44494,0.48883 6.95023,2.24876 5.91039,5.60072 -0.5194,1.67434 -2.23803,2.69888 -3.35706,4.04832 -5.8588,3.05581 -11.44696,6.69899 -17.57646,9.16743 -8.07534,3.25209 -31.98611,7.32533 -38.37056,8.27928 -22.32197,3.3353 -48.09767,5.78104 -70.36366,7.16538 -15.83163,0.9843 -31.69264,1.41982 -47.53896,2.12972 -18.04654,0.20952 -36.09223,0.74471 -54.13962,0.62855 -38.34908,-0.24683 -80.08318,-1.91334 -118.31285,-4.56583 -35.95476,-2.49466 -76.78132,-6.37981 -112.55682,-11.65504 -16.28964,-2.40197 -32.43966,-5.67063 -48.65949,-8.50594 C 121.88503,203.77386 86.540593,195.94068 54.267644,180.26317 42.081264,174.34329 29.484851,166.55465 20.107511,156.51012 16.588052,152.74025 14.141087,148.0961 11.157874,143.8891 9.8542876,139.54876 7.7473555,135.37226 7.2471144,130.86808 5.0467728,111.05616 19.811449,93.358096 35.447382,83.411636 43.029534,78.588417 51.22692,74.808373 59.11669,70.506743 65.874672,68.50704 72.485067,65.91556 79.390636,64.507638 c 17.73483,-3.615817 34.798694,-4.099348 52.852924,-2.799429 20.50673,1.476502 41.96911,5.498674 61.74091,11.005489 10.44042,2.907848 20.58649,6.784388 30.87973,10.176582 9.78492,4.273375 19.82267,8.009127 29.35475,12.820123 26.59543,13.423137 50.92929,31.106707 71.64712,52.524257 14.95507,15.46014 17.00413,20.00439 28.60016,37.163 2.77722,5.67716 6.01819,11.15008 8.33168,17.03149 5.31682,13.51657 8.00369,28.99878 2.05835,42.84616 -4.65646,10.84539 -9.02621,12.79904 -17.78357,20.34376 -7.32232,3.9184 -14.32063,8.51418 -21.9669,11.7552 -5.46219,2.31526 -11.31909,3.63868 -17.13328,4.81819 -14.48387,2.93825 -27.34802,3.49681 -42.15815,2.47843 -21.36345,-1.46902 -28.8277,-4.04762 -49.83935,-8.82851 -24.01976,-6.89996 -47.49546,-15.97954 -68.46086,-29.80312 -6.24924,-4.12046 -12.33567,-8.55641 -17.88357,-13.58155 -14.34489,-12.99324 -16.65151,-18.70446 -27.17184,-34.69735 -3.068269,-6.64076 -6.613516,-13.08129 -9.204798,-19.92229 -8.856733,-23.38182 -13.13318,-52.72163 -6.521658,-77.23027 1.414496,-5.243488 3.889734,-10.141486 5.834602,-15.212228 10.515244,-16.815972 4.618471,-9.113438 17.537564,-23.223736 0,0 8.70471,-3.642873 8.70471,-3.642873 v 0 c -13.17788,13.96415 -7.14686,6.328201 -17.94639,23.022932 -5.653284,14.114034 -7.823264,16.651034 -9.222611,32.292455 -1.781112,19.9087 1.915199,41.2481 8.916601,59.86612 2.56047,6.80875 6.08181,13.21635 9.12271,19.82452 10.55007,16.0234 12.66952,21.41548 26.98898,34.48034 17.19997,15.69299 39.42586,27.25186 61.05864,35.39127 8.09305,3.04506 16.45703,5.31463 24.68555,7.97192 8.47145,1.86748 16.85943,4.16499 25.41436,5.60244 22.23389,3.73589 45.06847,4.57206 67.2156,-0.23598 11.14203,-2.4189 14.6577,-4.07662 23.2791,-7.58505 8.73702,-7.28939 13.08981,-9.18713 17.9025,-19.76367 6.20496,-13.6363 3.91247,-29.06915 -1.07254,-42.6333 -2.1699,-5.9043 -5.27955,-11.41941 -7.91932,-17.12912 C 336.06972,172.45317 334.01,167.69072 319.40124,152.22425 299.01734,130.64355 274.83908,112.9982 248.36894,99.602842 238.86978,94.795746 228.86236,91.066936 219.10907,86.798985 208.81459,83.434625 198.67072,79.568693 188.22564,76.705909 151.73862,66.705553 110.06537,61.491121 72.692259,69.683066 c -6.999189,1.534175 -13.680117,4.268935 -20.520175,6.403403 -2.74147,1.304912 -5.698334,2.230276 -8.224407,3.914735 -4.448849,2.966622 -8.75425,6.218635 -12.577786,9.956771 -9.598879,9.38448 -17.018235,22.450045 -15.762814,36.351135 0.400524,4.43495 2.361024,8.58734 3.541537,12.88101 2.823497,4.21725 5.111299,8.8474 8.470494,12.65177 8.919781,10.10187 21.082473,18.14983 32.877108,24.27102 31.323505,16.25629 65.925094,24.68104 100.042184,32.62874 16.01815,2.96788 31.95767,6.39693 48.05443,8.90366 35.79543,5.57438 75.91307,9.55753 111.94204,12.061 38.86407,2.70046 79.92396,4.16393 118.89555,4.11321 18.28136,-0.0238 36.55465,-0.7696 54.83198,-1.1544 16.14205,-0.93673 32.30351,-1.58379 48.42614,-2.81021 23.05288,-1.75359 49.02792,-4.60323 72.03458,-8.50464 54.26541,-9.20218 -1.01994,-0.37868 39.76081,-9.6316 0.38283,-0.0869 -0.1016,0.77849 -0.1524,1.16773 1.20187,-0.97306 2.82814,-1.58244 3.60559,-2.91918 1.63541,-2.81193 -4.00688,-4.78319 -4.68731,-5.05062 -2.59789,-1.02103 -5.31389,-1.73388 -8.03235,-2.36766 -10.26245,-2.39258 -19.93948,-3.47624 -30.45415,-4.97961 -8.30128,-0.83074 -16.58713,-1.83325 -24.90377,-2.49222 -40.90766,-3.24134 -82.07037,-4.10548 -123.08025,-2.64257 -18.26533,0.65157 -36.52989,1.57852 -54.74264,3.10897 -19.26833,1.61915 -38.44105,4.22438 -57.66154,6.33657 -19.47929,3.30696 -39.08147,5.95749 -58.43789,9.9209 -39.39755,8.06702 -73.3624,17.30204 -110.91196,31.62121 -14.94506,5.69915 -29.7551,11.90584 -43.89977,19.37333 -37.59327,19.84689 -41.345227,26.06804 -72.307406,52.9483 -8.498649,10.06047 -17.779192,19.50935 -25.495948,30.18134 -13.842608,19.14382 -23.492371,38.77625 -31.171141,60.98403 -5.4538541,15.77308 -9.1512011,32.76388 -10.2124092,49.47226 -0.3307242,5.20716 0.3210576,10.43035 0.4815864,15.64553 0.9254139,2.69015 1.2253302,5.68547 2.776242,8.0704 0.8485807,1.30492 2.5145151,1.97763 4.0185938,2.37842 4.93674,1.31548 7.701631,-0.86643 12.465738,-2.08545 0.349739,-0.0895 0.716345,0.0903 1.074518,0.13544 4.042503,-2.44514 8.085008,-4.89032 12.127513,-7.33546 13.741514,-9.65401 19.043272,-12.84664 32.173368,-24.56945 13.8147,-12.33408 27.319239,-26.31149 38.701715,-40.90305 6.5457,-8.39113 12.83844,-17.02366 18.33942,-26.1339 5.44488,-9.01732 9.61332,-18.74618 14.41998,-28.11928 9.99095,-26.67344 13.74962,-32.98642 18.7512,-61.11378 5.13703,-28.88903 5.16982,-58.72183 0.38304,-87.6501 -1.3709,-8.28484 -3.67942,-16.387 -5.51912,-24.58049 -5.85006,-16.40159 -7.75213,-24.96488 -17.12372,-39.43601 -6.38086,-9.853 -13.62934,-17.40301 -23.64398,-23.51036 -11.655981,-7.10832 -16.844979,-7.20938 -29.982203,-10.29621 -5.808419,-0.37011 -11.605132,-1.14023 -17.425254,-1.11032 -19.834923,0.10193 -39.696917,4.25054 -58.3156656,10.93021 -14.0270083,5.03233 -19.0087304,7.90435 -31.0256534,13.99249 -5.610235,3.75757 -11.415037,7.23976 -16.830703,11.27269 -9.961534,7.41816 -17.509596,14.43647 -25.60129,23.72988 -5.68308,6.52709 -9.664821,12.03292 -13.47756,19.62758 -1.051409,2.09432 -1.735203,4.3538 -2.602807,6.5307 -0.280691,1.41357 -0.742614,2.80298 -0.842076,4.24071 -0.350996,5.07372 5.46911,-0.70579 5.743612,0.32493 0.335479,1.25967 -2.245931,1.32403 -3.368897,1.98604 5.415754,-3.1146 10.831504,-6.2292 16.247258,-9.3438 3.500361,-1.92275 6.973856,-3.89525 10.501082,-5.76826 36.165133,-19.20421 73.864074,-35.4221 112.74967,-48.28987 11.950988,-3.6511 23.803282,-7.64245 35.852967,-10.9533 53.37707,-14.66622 108.76577,-24.269622 164.31285,-21.99587 13.13678,0.53774 26.1797,2.46595 39.26954,3.69893 12.60361,2.44304 25.3274,4.33203 37.81086,7.32912 22.83217,5.48164 46.54608,13.30945 67.97313,23.02483 17.16611,7.78341 35.15632,17.82629 49.66438,30.12026 5.51336,4.67196 9.98992,10.44502 14.98489,15.66752 7.50517,13.52157 10.73658,15.99505 12.35744,31.38768 0.56909,5.40445 0.30194,10.90102 -0.3179,16.29989 -0.68857,5.9978 -2.0208,11.92264 -3.59153,17.75192 -4.33189,16.07618 -9.1031,25.92564 -15.59467,41.46274 -3.80974,7.82931 -7.43646,15.75035 -11.42918,23.48793 -16.49646,31.96889 -35.56098,62.73581 -57.82403,91.02754 -4.27908,5.43785 -8.8891,10.60691 -13.33365,15.91038 -13.60591,14.07022 -10.87538,12.77233 -29.49731,24.40186 -4.81737,3.00849 -10.12701,5.28656 -15.95385,4.75631 -6.63035,-0.60339 -8.6924,-3.36781 -13.83717,-7.23326 -2.30582,-2.69013 -4.79015,-5.23698 -6.9174,-8.0704 -5.37179,-7.15508 -12.01098,-18.39294 -16.32665,-25.83744 -12.28198,-21.18632 -23.55463,-42.93277 -35.11706,-64.51314 -14.55499,-27.04915 -28.66734,-54.56862 -46.49423,-79.67985 -5.90136,-8.31276 -12.069,-16.46422 -18.77798,-24.14 -18.1798,-20.79961 -23.05076,-23.02684 -44.58406,-39.98761 -22.33244,-13.11788 -28.24181,-18.27042 -53.119669,-26.1747 -28.846798,-9.16529 -59.543132,-11.09335 -89.5584692,-8.7363 -10.6610344,0.8372 -21.2113658,2.74083 -31.8170488,4.11125 -10.940634,2.35296 -21.981651,4.27987 -32.8219,7.05887 -23.639272,6.06017 -42.529903,12.71442 -65.036453,22.12223 -8.36571,3.49689 -16.67602,7.17535 -24.68701,11.4224 -26.3991,13.99556 -30.51497,18.21296 -54.36981,35.48067 -7.30102,6.60948 -14.94739,12.85645 -21.90307,19.82844 -11.38771,11.41442 -21.9229,24.35286 -30.59594,37.98004 -5.44981,8.56279 -9.72317,16.96466 -12.47115,26.66386 -0.6218,2.19469 -0.68562,4.51035 -1.02844,6.76553 1.97051,5.42155 0.52112,-0.78846 -5.295,6.80821 -1.3036,1.7027 3.62281,-2.3022 5.34662,-3.57773 2.75786,-2.04065 5.38473,-4.2527 8.08899,-6.36391 14.3196,-11.17918 11.47818,-8.91802 27.87113,-21.28682 19.26822,-13.9429 27.98638,-20.49372 48.59486,-34.25637 25.47324,-17.01141 49.57489,-32.06521 76.1324,-47.69287 14.279873,-8.40294 28.637749,-16.68383 43.213468,-24.56245 15.428102,-8.33936 31.185786,-16.05402 46.778677,-24.08104 40.984155,-18.39873 55.659752,-26.34713 98.324073,-40.13848 16.098835,-5.20399 32.408192,-9.82634 48.900262,-13.60333 30.22731,-6.92262 61.44114,-11.04255 92.44352,-12.04052 14.32237,-0.46104 28.6547,0.52913 42.98205,0.79369 13.5808,1.56999 27.25415,2.48067 40.74239,4.70995 35.84779,5.92477 71.93706,16.93952 104.44549,33.29314 23.16258,11.6521 28.36037,16.74261 48.63097,31.69041 13.56916,13.09446 20.62499,18.14007 30.41679,33.95782 6.28536,10.15341 10.60945,21.15282 11.28948,33.18032 0.82704,14.62784 -2.57109,19.90948 -7.30993,33.61418 -3.45207,6.19689 -6.49417,12.64063 -10.35619,18.59069 -9.71939,14.97417 -22.5942,30.2483 -35.00046,42.89001 -17.24126,17.56844 -34.12162,31.8052 -54.05263,46.3653 -10.61569,7.75504 -21.76666,14.74943 -32.65,22.12414 -13.32601,7.92718 -26.4545,16.19625 -39.97804,23.78154 -21.7283,12.18729 -48.18407,25.22056 -71.18607,34.98101 -17.55851,7.45061 -41.43506,16.6016 -60.54207,20.71076 -6.19541,1.33239 -12.60375,1.33372 -18.90563,2.0006 -10.85994,-0.54094 -16.52348,0.27691 -26.37099,-3.88996 -6.16484,-2.60858 -11.37327,-6.92854 -14.77681,-12.73191 -4.84094,-8.25426 -4.50252,-13.50634 -5.81178,-22.98451 0.10725,-5.43811 -0.11908,-10.89303 0.32173,-16.31429 1.11521,-13.71542 4.45552,-30.99535 7.43541,-44.14229 6.98119,-30.80017 16.99644,-60.74193 25.15842,-91.22672 3.04269,-11.92302 6.33605,-23.78487 9.12806,-35.76907 5.63501,-24.18718 10.54665,-48.06171 12.83476,-72.83098 1.83672,-19.88271 2.35145,-42.72557 -1.55402,-62.55621 -1.67602,-8.51029 -5.18671,-16.55399 -7.78007,-24.83099 C 157.54848,91.275828 156.77912,86.471198 137.92058,72.848466 110.75482,53.2249 74.82565,43.129321 42.450453,37.003878 27.337528,34.144489 12.004242,32.60676 -3.2188631,30.4082 -20.171333,29.486502 -37.099435,27.794034 -54.076271,27.643105 c -35.810396,-0.318362 -74.141649,2.65484 -109.481449,8.228463 -36.68542,5.785847 -72.2282,14.326142 -107.33476,26.477687 -16.27269,5.632516 -31.95645,12.8408 -47.93469,19.261201 -12.33668,6.662843 -25.19008,12.44691 -37.01002,19.988534 -40.7138,25.97712 -79.3413,64.09631 -91.07551,112.60188 -2.25277,9.31219 -2.00025,19.05692 -3.00038,28.58537 3.90104,21.99156 2.30762,30.05844 17.18392,47.83929 5.76376,6.88911 12.98244,12.55117 20.43494,17.56526 8.77152,5.90153 18.26201,10.75841 27.95069,14.98891 29.59473,12.92238 48.73291,16.16197 80.63311,24.16736 17.43922,2.98939 34.79157,6.53936 52.31765,8.96824 41.28955,5.72219 80.90452,8.70661 122.61408,9.77376 44.180739,1.13038 90.186777,0.21317 134.208908,-3.90139 21.783821,-2.03605 43.392738,-5.6384 65.089106,-8.45759 49.961786,-10.91867 65.138916,-12.05209 111.746996,-30.28932 13.36237,-5.22856 26.48774,-11.22 38.93875,-18.35181 23.17257,-13.27309 46.02568,-31.58895 64.63549,-50.75772 8.56065,-8.81775 15.86744,-18.77163 23.80115,-28.15745 6.22361,-9.55011 13.04269,-18.73762 18.67085,-28.65035 9.25166,-16.29477 17.5636,-35.45365 21.53217,-53.93639 2.88634,-13.44244 3.52377,-27.01614 -0.45464,-40.30027 -1.52982,-5.108228 -4.6129,-9.615535 -6.91935,-14.423302 -3.46112,-3.81091 -6.446,-8.116171 -10.38337,-11.43273 C 323.00103,69.777061 311.17315,64.569964 300.03464,60.990873 274.8168,52.887715 248.25778,50.77557 221.93703,50.421055 c -10.74945,0.366176 -21.52218,0.302329 -32.24836,1.098529 -44.86371,3.33021 -89.15071,13.397521 -130.840707,30.35201 -9.153067,3.722367 -17.976749,8.208238 -26.965127,12.312359 -5.476374,2.91289 -11.088718,5.583412 -16.429123,8.738677 -12.1102843,7.1551 -22.4477918,14.32136 -33.454658,22.89754 -3.402659,2.65124 -6.646219,5.5012 -9.923375,8.30608 -2.035591,1.74225 -3.747601,3.90375 -6.013313,5.33399 -4.058814,2.56215 -8.547288,4.37015 -12.82093,6.55523 1.856052,-1.19063 0.517112,-0.28091 3.826121,-3.25465 1.813242,-1.62953 3.613727,-3.27329 5.434997,-4.89384 9.524341,-8.4747 19.240202,-16.73843 29.4554712,-24.37878 4.7925688,-3.50089 9.5171679,-7.09677 14.3777063,-10.50267 C 21.326314,92.481293 31.061591,86.465761 47.784951,76.9123 60.291318,69.767857 73.739803,62.991404 87.082385,57.556693 c 7.064526,-2.877529 14.335455,-5.21974 21.503175,-7.829608 20.45604,-5.542463 25.34484,-7.720325 46.68028,-10.003181 35.80312,-3.830873 71.75972,0.820118 106.7056,8.633399 9.32215,2.51474 18.73197,4.724463 27.96643,7.544218 31.98564,9.766858 64.38117,23.099159 91.74589,42.626716 4.85865,3.467143 9.30457,7.478923 13.95687,11.218393 7.46046,8.00147 12.0336,11.55637 16.72067,21.29804 3.24598,6.7465 4.67957,13.62841 3.63474,21.10104 -1.43706,10.27792 -5.08482,14.64105 -10.13834,23.73189 -3.48683,4.58053 -6.72838,9.35861 -10.46054,13.74157 -21.63347,25.40587 -49.70719,46.94661 -77.60096,64.96911 -10.44544,6.74893 -21.19969,13.00746 -31.79953,19.51119 -8.56999,4.84431 -17.05205,9.84755 -25.70996,14.5329 -14.05872,7.60806 -31.91174,16.52743 -46.67253,23.0461 -11.53581,5.09445 -23.22453,9.73725 -35.36313,13.19552 -4.28556,1.22097 -8.68563,1.99673 -13.02845,2.99511 -9.07855,1.00356 -11.74231,1.72542 -20.61209,1.16276 -11.03078,-0.69972 -20.77816,-4.18648 -29.79695,-10.54264 -5.63178,-4.96845 -7.32179,-5.93487 -11.87913,-12.21348 -9.011549,-12.41513 -13.408184,-27.23156 -15.7729,-42.21263 -1.160409,-13.12633 -1.806196,-15.13471 -1.030041,-28.56892 1.223277,-21.17332 6.131398,-41.97263 11.667744,-62.36464 3.826557,-13.61667 4.841807,-17.40338 8.839297,-30.93727 5.32905,-18.042 11.38741,-35.93211 14.86513,-54.459919 0.5476,-3.637743 1.2172,-7.259204 1.6428,-10.913229 1.68356,-14.454193 1.49312,-29.280657 -3.4319,-43.117103 -2.2006,-4.466653 -2.63229,-6.324944 -6.12918,-9.826159 -4.06925,-4.074298 -9.50856,-6.156156 -15.166154,-6.754388 -2.364359,-0.250006 -4.754079,-0.09769 -7.131117,-0.146536 -7.523993,0.930276 -10.131678,0.938398 -17.662045,3.280604 -3.453432,1.074137 -6.76687,2.555274 -10.153574,3.824204 -0.765995,0.287003 -1.617845,0.398929 -2.304441,0.843564 -11.539037,7.472593 -10.748489,7.6243 -20.980093,17.257107 -8.674944,10.8547 -11.504774,13.315807 -17.992971,25.999643 -5.363439,10.485038 -9.374282,21.82205 -11.859667,33.330352 -3.1656085,14.65801 -3.0040468,22.8771 -3.8235447,37.87364 0.1942605,6.62314 0.1390108,13.25831 0.5827818,19.86942 0.8404725,12.521 2.6874549,25.35865 5.2718279,37.64195 2.109037,10.02407 4.763247,19.9037 8.591734,29.4195 1.460018,3.62891 3.351007,7.06919 5.02651,10.60378 4.019027,6.0688 5.221574,9.10441 10.909031,13.45762 8.763421,6.70757 20.298971,6.33039 30.728137,6.47857 3.712792,-0.16963 7.429912,-0.2621 11.138373,-0.50889 23.196222,-1.5437 46.357432,-4.91559 68.754322,-11.23194 10.37407,-3.35596 12.97875,-3.93571 22.70121,-8.03192 2.83045,-1.19251 5.47391,-2.82789 8.36664,-3.86017 1.03418,-0.36904 -3.68902,2.37735 -2.72715,1.84771 2.79208,-1.53743 4.36889,-2.76875 6.79769,-4.53551 0,0 10.31938,-4.17425 10.31938,-4.17425 z"
       inkscape:connector-curvature="0" />
    <path
       style="opacity:0.01000001;fill:#24221c;stroke-width:0.26458332"
       id="path3727"
       d="m 154.14967,253.43123 c -9.07755,0.62631 -18.12042,1.68462 -27.19433,2.4035 -15.63999,0.84762 -31.334258,1.8216 -47.004904,1.28697 -3.46551,-0.11824 -6.924826,-0.37644 -10.38724,-0.56466 -12.509812,-0.80126 -24.979003,-2.5638 -37.084941,-5.87354 -6.084122,-1.66339 -8.023785,-2.50649 -13.804496,-4.62732 -6.228778,-2.57721 -12.4614064,-5.53567 -17.5555861,-10.0476 -2.4352678,-2.15692 -3.1559762,-3.24264 -5.162009,-5.71394 -3.8376378,-5.25691 -6.1923949,-11.2779 -7.8609129,-17.5161 -0.831785,-3.6797 -1.540884,-7.38322 -1.954363,-11.13383 0,0 9.8954259,-5.16257 9.8954259,-5.16257 v 0 c 0.3085468,3.72817 0.948082,7.40939 1.7017188,11.07232 1.5220243,6.12354 3.8043864,12.01893 7.5287591,17.17099 1.9809203,2.47754 2.5448331,3.38742 4.9688662,5.54833 4.960006,4.42159 11.017782,7.38225 17.076165,9.96365 5.735013,2.15094 7.522604,2.95586 13.572577,4.64281 11.98581,3.34208 24.343204,5.11619 36.74876,5.87776 3.459384,0.17351 6.915904,0.41915 10.378154,0.52052 15.754636,0.46128 31.530526,-0.56504 47.242136,-1.58124 9.34025,-0.85216 18.63689,-2.10083 27.98113,-2.86662 0,0 -9.08491,6.60057 -9.08491,6.60057 z"
       inkscape:connector-curvature="0" />
    <rect
       style="opacity:0.01000001;fill:#000000;stroke-width:0.26458332"
       id="rect3729"
       width="160.47685"
       height="110.82001"
       x="21.156128"
       y="93.617294" />
    <rect
       style="opacity:0.01000001;fill:#000000;stroke-width:0.26458332"
       id="rect3731"
       width="32.278946"
       height="20.085699"
       x="87.16153"
       y="264.06311" />
  </g>
</svg>
